<svg width="496" height="97" viewBox="0 0 496 97" fill="none" xmlns="http://www.w3.org/2000/svg">
<rect x="248" width="248" height="97" fill="#F30C0C"/>
<path d="M273.781 76V19.125H293.273C299.706 19.125 304.602 20.4141 307.961 22.9922C311.32 25.5703 313 29.4115 313 34.5156C313 37.1198 312.297 39.4635 310.891 41.5469C309.484 43.6302 307.427 45.2448 304.719 46.3906C307.792 47.224 310.161 48.7995 311.828 51.1172C313.521 53.4089 314.367 56.1693 314.367 59.3984C314.367 64.737 312.648 68.8385 309.211 71.7031C305.799 74.5677 300.904 76 294.523 76H273.781ZM283.664 50.3359V68.1094H294.641C297.74 68.1094 300.161 67.3411 301.906 65.8047C303.651 64.2682 304.523 62.1328 304.523 59.3984C304.523 53.487 301.503 50.4661 295.461 50.3359H283.664ZM283.664 43.0703H293.352C296.424 43.0703 298.82 42.3802 300.539 41C302.284 39.5938 303.156 37.6146 303.156 35.0625C303.156 32.25 302.349 30.2188 300.734 28.9688C299.146 27.7188 296.659 27.0938 293.273 27.0938H283.664V43.0703ZM345.461 42.4062C344.211 42.1979 342.922 42.0938 341.594 42.0938C337.245 42.0938 334.315 43.7604 332.805 47.0938V76H323.312V33.7344H332.375L332.609 38.4609C334.901 34.7891 338.078 32.9531 342.141 32.9531C343.495 32.9531 344.615 33.1354 345.5 33.5L345.461 42.4062ZM375.539 76C375.122 75.1927 374.758 73.8776 374.445 72.0547C371.424 75.2057 367.727 76.7812 363.352 76.7812C359.107 76.7812 355.643 75.5703 352.961 73.1484C350.279 70.7266 348.938 67.7318 348.938 64.1641C348.938 59.6589 350.604 56.2083 353.938 53.8125C357.297 51.3906 362.089 50.1797 368.312 50.1797H374.133V47.4062C374.133 45.2188 373.521 43.474 372.297 42.1719C371.073 40.8438 369.211 40.1797 366.711 40.1797C364.549 40.1797 362.779 40.7266 361.398 41.8203C360.018 42.888 359.328 44.2552 359.328 45.9219H349.836C349.836 43.6042 350.604 41.4427 352.141 39.4375C353.677 37.4062 355.76 35.8177 358.391 34.6719C361.047 33.526 364.003 32.9531 367.258 32.9531C372.206 32.9531 376.151 34.2031 379.094 36.7031C382.036 39.1771 383.547 42.6667 383.625 47.1719V66.2344C383.625 70.0365 384.159 73.0703 385.227 75.3359V76H375.539ZM365.109 69.1641C366.984 69.1641 368.742 68.7083 370.383 67.7969C372.049 66.8854 373.299 65.6615 374.133 64.125V56.1562H369.016C365.5 56.1562 362.857 56.7682 361.086 57.9922C359.315 59.2161 358.43 60.9479 358.43 63.1875C358.43 65.0104 359.029 66.4688 360.227 67.5625C361.451 68.6302 363.078 69.1641 365.109 69.1641ZM402.375 33.7344L402.648 38.6172C405.773 34.8411 409.875 32.9531 414.953 32.9531C423.755 32.9531 428.234 37.9922 428.391 48.0703V76H418.898V48.6172C418.898 45.9349 418.312 43.9557 417.141 42.6797C415.995 41.3776 414.107 40.7266 411.477 40.7266C407.648 40.7266 404.797 42.4583 402.922 45.9219V76H393.43V33.7344H402.375ZM436.32 54.5547C436.32 48.0443 437.831 42.8229 440.852 38.8906C443.872 34.9323 447.922 32.9531 453 32.9531C457.479 32.9531 461.099 34.5156 463.859 37.6406V16H473.352V76H464.758L464.289 71.625C461.451 75.0625 457.661 76.7812 452.922 76.7812C447.974 76.7812 443.964 74.7891 440.891 70.8047C437.844 66.8203 436.32 61.4036 436.32 54.5547ZM445.812 55.375C445.812 59.6719 446.633 63.0312 448.273 65.4531C449.94 67.849 452.297 69.0469 455.344 69.0469C459.224 69.0469 462.062 67.3151 463.859 63.8516V45.8047C462.115 42.4193 459.302 40.7266 455.422 40.7266C452.349 40.7266 449.979 41.9505 448.312 44.3984C446.646 46.8203 445.812 50.4792 445.812 55.375Z" fill="#DBDBDB"/>
<rect x="2" y="2" width="244" height="93" stroke="#DBDBDB" stroke-width="4"/>
<path d="M53.7812 76V19.125H73.2734C79.7057 19.125 84.6016 20.4141 87.9609 22.9922C91.3203 25.5703 93 29.4115 93 34.5156C93 37.1198 92.2969 39.4635 90.8906 41.5469C89.4844 43.6302 87.4271 45.2448 84.7188 46.3906C87.7917 47.224 90.1615 48.7995 91.8281 51.1172C93.5208 53.4089 94.3672 56.1693 94.3672 59.3984C94.3672 64.737 92.6484 68.8385 89.2109 71.7031C85.7995 74.5677 80.9036 76 74.5234 76H53.7812ZM63.6641 50.3359V68.1094H74.6406C77.7396 68.1094 80.1615 67.3411 81.9062 65.8047C83.651 64.2682 84.5234 62.1328 84.5234 59.3984C84.5234 53.487 81.5026 50.4661 75.4609 50.3359H63.6641ZM63.6641 43.0703H73.3516C76.4245 43.0703 78.8203 42.3802 80.5391 41C82.2839 39.5938 83.1562 37.6146 83.1562 35.0625C83.1562 32.25 82.349 30.2188 80.7344 28.9688C79.1458 27.7188 76.6589 27.0938 73.2734 27.0938H63.6641V43.0703ZM113.43 76H103.938V33.7344H113.43V76ZM103.352 22.7578C103.352 21.2995 103.807 20.0885 104.719 19.125C105.656 18.1615 106.984 17.6797 108.703 17.6797C110.422 17.6797 111.75 18.1615 112.688 19.125C113.625 20.0885 114.094 21.2995 114.094 22.7578C114.094 24.1901 113.625 25.388 112.688 26.3516C111.75 27.2891 110.422 27.7578 108.703 27.7578C106.984 27.7578 105.656 27.2891 104.719 26.3516C103.807 25.388 103.352 24.1901 103.352 22.7578ZM137.531 57.875L133.312 62.2109V76H123.82V16H133.312V50.6094L136.281 46.8984L147.961 33.7344H159.367L143.664 51.3516L161.047 76H150.07L137.531 57.875ZM183.43 76.7812C177.414 76.7812 172.531 74.8932 168.781 71.1172C165.057 67.3151 163.195 62.263 163.195 55.9609V54.7891C163.195 50.5703 164.003 46.8073 165.617 43.5C167.258 40.1667 169.549 37.5755 172.492 35.7266C175.435 33.8776 178.716 32.9531 182.336 32.9531C188.091 32.9531 192.531 34.7891 195.656 38.4609C198.807 42.1328 200.383 47.3281 200.383 54.0469V57.875H172.766C173.052 61.3646 174.211 64.125 176.242 66.1562C178.299 68.1875 180.878 69.2031 183.977 69.2031C188.326 69.2031 191.867 67.4453 194.602 63.9297L199.719 68.8125C198.026 71.3385 195.76 73.3047 192.922 74.7109C190.109 76.0911 186.945 76.7812 183.43 76.7812ZM182.297 40.5703C179.693 40.5703 177.583 41.4818 175.969 43.3047C174.38 45.1276 173.365 47.6667 172.922 50.9219H191.008V50.2188C190.799 47.0417 189.953 44.6458 188.469 43.0312C186.984 41.3906 184.927 40.5703 182.297 40.5703Z" fill="#DBDBDB"/>
</svg>
